<?xml version="1.0" standalone="no"?>
<!DOCTYPE svg PUBLIC "-//W3C//DTD SVG 20010904//EN"
 "http://www.w3.org/TR/2001/REC-SVG-20010904/DTD/svg10.dtd">
<svg version="1.0" xmlns="http://www.w3.org/2000/svg"
 width="623.000000pt" height="623.000000pt" viewBox="0 0 623.000000 623.000000"
 preserveAspectRatio="xMidYMid meet">

<g transform="translate(0.000000,623.000000) scale(0.100000,-0.100000)"
fill="#ffffff" stroke="none">
<path d="M1657 3593 c-65 -22 -129 -81 -158 -145 -24 -52 -24 -59 -24 -338 0
-279 0 -286 24 -338 30 -67 94 -124 165 -146 46 -15 92 -17 327 -14 255 3 277
4 319 24 59 28 108 77 136 139 23 49 24 57 24 335 0 278 -1 286 -24 335 -27
58 -74 107 -131 138 -38 21 -54 22 -325 24 -241 2 -292 0 -333 -14z m391 -335
c3 -37 4 -38 46 -38 23 0 47 -5 54 -12 8 -8 12 -49 12 -120 0 -91 3 -108 18
-117 13 -8 15 -14 6 -28 -9 -15 -28 -18 -124 -21 -74 -2 -117 1 -126 9 -8 7
-14 30 -14 55 0 44 0 44 -36 44 -67 0 -74 10 -74 105 0 84 0 85 -25 85 -22 0
-25 4 -25 33 0 19 3 37 7 41 4 3 68 5 142 4 l136 -3 3 -37z"/>
<path d="M1822 3173 c3 -103 5 -118 21 -121 15 -3 17 5 17 63 0 100 5 105 100
105 72 0 80 2 80 19 0 48 -6 51 -116 51 l-105 0 3 -117z m83 97 c4 -6 -7 -10
-25 -10 -18 0 -29 4 -25 10 3 6 15 10 25 10 10 0 22 -4 25 -10z m95 -30 c0 -6
-27 -10 -60 -10 -33 0 -60 4 -60 10 0 6 27 10 60 10 33 0 60 -4 60 -10z"/>
<path d="M1770 3261 c0 -15 6 -21 21 -21 25 0 22 33 -4 38 -12 2 -17 -3 -17
-17z"/>
<path d="M1985 3203 l-50 -4 0 -122 c0 -67 4 -128 8 -134 13 -20 27 -15 37 12
9 24 13 25 90 25 l80 0 0 105 c0 133 4 130 -165 118z m35 -33 c0 -5 -11 -10
-24 -10 -14 0 -28 5 -31 10 -4 6 7 10 24 10 17 0 31 -4 31 -10z m73 -27 c-18
-2 -48 -2 -65 0 -18 2 -4 4 32 4 36 0 50 -2 33 -4z m-45 -30 c-10 -2 -28 -2
-40 0 -13 2 -5 4 17 4 22 1 32 -1 23 -4z m-30 -30 c-10 -2 -28 -2 -40 0 -13 2
-5 4 17 4 22 1 32 -1 23 -4z m75 -30 c-18 -2 -48 -2 -65 0 -18 2 -4 4 32 4 36
0 50 -2 33 -4z m-38 -23 c4 -6 -7 -10 -27 -9 -27 0 -30 2 -13 9 27 12 33 12
40 0z m-35 -30 c0 -5 -14 -10 -31 -10 -17 0 -28 4 -24 10 3 6 17 10 31 10 13
0 24 -4 24 -10z"/>
<path d="M1880 3126 c0 -70 2 -76 20 -76 19 0 21 5 18 72 -2 60 -6 73 -20 76
-16 3 -18 -6 -18 -72z"/>
<path d="M1997 2953 c-19 -18 1 -24 80 -21 58 2 88 7 91 16 3 9 -18 12 -80 12
-47 0 -88 -3 -91 -7z"/>
<path d="M3240 3115 l0 -275 40 0 40 0 0 133 c0 126 1 135 23 155 23 22 68 42
93 42 8 0 23 -9 34 -20 18 -18 20 -33 20 -165 l0 -145 40 0 40 0 0 138 c-1
218 -18 257 -114 257 -41 0 -62 -6 -94 -28 l-42 -27 0 105 0 105 -40 0 -40 0
0 -275z"/>
<path d="M4110 3117 c0 -151 2 -276 5 -278 2 -3 20 -3 40 -1 l35 4 0 274 0
274 -40 0 -40 0 0 -273z"/>
<path d="M4310 3115 l0 -275 40 0 40 0 0 275 0 275 -40 0 -40 0 0 -275z"/>
<path d="M2893 3360 c-23 -5 -52 -14 -65 -21 -112 -60 -144 -301 -57 -432 38
-58 96 -82 189 -81 70 0 115 18 162 61 31 30 28 47 -12 63 -26 11 -33 10 -60
-13 -57 -48 -147 -48 -192 1 -64 67 -65 237 -2 311 43 51 136 53 194 4 l30
-25 30 22 c29 21 29 22 13 46 -34 52 -141 82 -230 64z"/>
<path d="M3765 3227 c-71 -33 -100 -101 -94 -219 6 -104 36 -151 114 -173 66
-20 131 -12 178 19 39 27 40 42 5 64 -25 15 -28 15 -47 -2 -53 -48 -154 -19
-166 48 -4 19 -5 39 -2 43 3 5 54 8 114 6 147 -3 147 -3 140 62 -7 66 -31 119
-64 141 -35 22 -139 29 -178 11z m119 -58 c27 -13 52 -60 42 -84 -4 -12 -24
-15 -91 -15 -47 0 -85 4 -85 9 0 23 23 67 43 83 26 20 56 23 91 7z"/>
<path d="M4595 3226 c-46 -23 -63 -40 -79 -77 -39 -95 -27 -220 28 -275 83
-83 230 -65 283 36 18 34 23 59 23 119 -1 138 -50 200 -163 207 -42 3 -72 0
-92 -10z m148 -88 c25 -34 34 -130 17 -182 -7 -23 -22 -42 -40 -51 -92 -48
-160 32 -143 168 8 64 47 99 106 95 30 -2 45 -10 60 -30z"/>
</g>
</svg>
