<?xml version="1.0" encoding="UTF-8" standalone="no" ?>
<!DOCTYPE svg PUBLIC "-//W3C//DTD SVG 1.1//EN" "http://www.w3.org/Graphics/SVG/1.1/DTD/svg11.dtd">
<svg xmlns="http://www.w3.org/2000/svg" xmlns:xlink="http://www.w3.org/1999/xlink" version="1.1" width="640" height="640" viewBox="0 0 640 640" xml:space="preserve">
<desc>Created with Fabric.js 5.3.0</desc>
<defs>
</defs>
<g transform="matrix(1 0 0 1 233.5226077813 318.1172953148)" id="YxLKA6t1Eaf3R6yi_CTlT"  >
<path style="stroke: rgb(86,255,157); stroke-width: 0; stroke-dasharray: none; stroke-linecap: butt; stroke-dashoffset: 0; stroke-linejoin: miter; stroke-miterlimit: 4; fill: rgb(47,47,47); fill-rule: nonzero; opacity: 1;"  transform=" translate(-104.6477384209, -242.9442700742)" d="M 0 44.39828 C 0 19.87779 19.87779 0 44.39828 0 L 164.8972 0 L 164.8972 0 C 189.41769 0 209.29548 19.87779 209.29548 44.39828 L 209.29548 441.49026 L 209.29548 441.49026 C 209.29548 466.01075 189.41769 485.88854 164.8972 485.88854 L 44.39828 485.88854 L 44.39828 485.88854 C 19.87779 485.88854 0 466.01075 0 441.49026 z" stroke-linecap="round" />
</g>
<g transform="matrix(1.096701328 0 0 1.096701328 334.1324921136 496.6561514196)" id="NHJPLf9XsZgbceM77r7h4"  >
<path style="stroke: none; stroke-width: 1; stroke-dasharray: none; stroke-linecap: butt; stroke-dashoffset: 0; stroke-linejoin: miter; stroke-miterlimit: 4; fill: rgb(255,255,255); fill-rule: nonzero; opacity: 1;"  transform=" translate(-40, -40)" d="M 80 52.5 L 52.5 52.5 L 52.5 80 L 27.5 80 L 27.5 52.5 L 0 52.5 L 0 27.5 L 27.5 27.5 L 27.5 0 L 52.5 0 L 52.5 27.5 L 80 27.5 L 80 52.5 z" stroke-linecap="round" />
</g>
<g transform="matrix(1.65 0 0 0.35 203.9116719243 112.7234490011)" id="qOWOF45p_11ojndUKwapz"  >
<path style="stroke: rgb(164,7,9); stroke-width: 0; stroke-dasharray: none; stroke-linecap: butt; stroke-dashoffset: 0; stroke-linejoin: miter; stroke-miterlimit: 4; fill: rgb(119,119,119); fill-rule: nonzero; opacity: 1;"  transform=" translate(0, 0)" d="M -33.64879 -33.64879 L 33.64879 -33.64879 L 33.64879 33.64879 L -33.64879 33.64879 z" stroke-linecap="round" />
</g>
<g transform="matrix(2.55000002 0 0 0.9143820649 234.1955842681 185.4576509756)" id="UgVKvl5oKdXuk0FSNTfTK"  >
<path style="stroke: rgb(164,7,9); stroke-width: 0; stroke-dasharray: none; stroke-linecap: butt; stroke-dashoffset: 0; stroke-linejoin: miter; stroke-miterlimit: 4; fill: rgb(119,119,119); fill-rule: nonzero; opacity: 1;"  transform=" translate(0, 0)" d="M -33.64879 -33.64879 L 33.64879 -33.64879 L 33.64879 33.64879 L -33.64879 33.64879 z" stroke-linecap="round" />
</g>
<g transform="matrix(2.55000002 0 0 0.9143820649 233.5226077813 256.0254743194)" id="LBOaz7ENXrWkcyHMaZkFa"  >
<path style="stroke: rgb(164,7,9); stroke-width: 0; stroke-dasharray: none; stroke-linecap: butt; stroke-dashoffset: 0; stroke-linejoin: miter; stroke-miterlimit: 4; fill: rgb(119,119,119); fill-rule: nonzero; opacity: 1;"  transform=" translate(0, 0)" d="M -33.64879 -33.64879 L 33.64879 -33.64879 L 33.64879 33.64879 L -33.64879 33.64879 z" stroke-linecap="round" />
</g>
</svg>