<?xml version="1.0" encoding="UTF-8" standalone="no" ?>
<!DOCTYPE svg PUBLIC "-//W3C//DTD SVG 1.1//EN" "http://www.w3.org/Graphics/SVG/1.1/DTD/svg11.dtd">
<svg xmlns="http://www.w3.org/2000/svg" xmlns:xlink="http://www.w3.org/1999/xlink" version="1.1" width="640" height="640" viewBox="0 0 640 640" xml:space="preserve">
<desc>Created with Fabric.js 5.3.0</desc>
<defs>
</defs>
<g transform="matrix(1.0536147639 0 0 1.5715211041 268.2370394792 311.4515789779)" id="0_jW0N5WojZgC-BsG5AIL"  >
<path style="stroke: rgb(34,164,83); stroke-width: 0; stroke-dasharray: none; stroke-linecap: butt; stroke-dashoffset: 0; stroke-linejoin: miter; stroke-miterlimit: 4; fill: rgb(40,40,40); fill-rule: nonzero; opacity: 1;"  transform=" translate(0, 0)" d="M -172.6183 -126.01648 C -172.6183 -138.37605 -165.29505 -150.22941 -152.25958 -158.96894 C -139.22411 -167.70848 -121.54420999999999 -172.6183 -103.10927000000001 -172.6183 L 103.10925999999998 -172.6183 L 103.10925999999998 -172.6183 C 121.54419999999998 -172.6183 139.22409999999996 -167.70848 152.25956999999997 -158.96894 C 165.29503999999997 -150.2294 172.61828999999997 -138.37605 172.61828999999997 -126.01648 L 172.61828999999997 126.01648 L 172.61828999999997 126.01648 C 172.61828999999997 151.75395 141.49803999999997 172.6183 103.10925999999998 172.6183 L -103.10927000000001 172.6183 L -103.10927000000001 172.6183 C -141.49805 172.6183 -172.6183 151.75396 -172.6183 126.01648 z" stroke-linecap="round" />
</g>
<g transform="matrix(2.05 0 0 0.35 221.4423076923 95.3762068548)" id="TPnOp2AHkgx72CrpFArcN"  >
<path style="stroke: rgb(110,40,84); stroke-width: 0; stroke-dasharray: none; stroke-linecap: butt; stroke-dashoffset: 0; stroke-linejoin: miter; stroke-miterlimit: 4; fill: rgb(232,232,232); fill-rule: nonzero; opacity: 1;"  transform=" translate(0, 0)" d="M -48.07692 -48.07692 L 48.076930000000004 -48.07692 L 48.076930000000004 48.076930000000004 L -48.07692 48.076930000000004 z" stroke-linecap="round" />
</g>
<g transform="matrix(3.0233301793 0 0 0.9944615385 268.2370336655 189.2445500501)" id="hqhHSQTNf09_ThmPNQao3"  >
<path style="stroke: rgb(110,40,84); stroke-width: 0; stroke-dasharray: none; stroke-linecap: butt; stroke-dashoffset: 0; stroke-linejoin: miter; stroke-miterlimit: 4; fill: rgb(126,126,126); fill-rule: nonzero; opacity: 1;"  transform=" translate(0, 0)" d="M -48.07692 -48.07692 L 48.076930000000004 -48.07692 L 48.076930000000004 48.076930000000004 L -48.07692 48.076930000000004 z" stroke-linecap="round" />
</g>
<g transform="matrix(3.0233301793 0 0 0.9944615385 268.2370394792 303.0907038963)" id="42j7p1PELz2cEuG4XA69w"  >
<path style="stroke: rgb(110,40,84); stroke-width: 0; stroke-dasharray: none; stroke-linecap: butt; stroke-dashoffset: 0; stroke-linejoin: miter; stroke-miterlimit: 4; fill: rgb(126,126,126); fill-rule: nonzero; opacity: 1;"  transform=" translate(-0.000005, -0.000005)" d="M -48.07692 -48.07692 L 48.076930000000004 -48.07692 L 48.076930000000004 48.076930000000004 L -48.07692 48.076930000000004 z" stroke-linecap="round" />
</g>
<g transform="matrix(0.8928571429 0 0 0.8928571429 432.0023478499 534.9313166086)" id="j-XN6G5MYjluZCYE2nD3p"  >
<path style="stroke: none; stroke-width: 1; stroke-dasharray: none; stroke-linecap: butt; stroke-dashoffset: 0; stroke-linejoin: miter; stroke-miterlimit: 4; fill: rgb(220,220,220); fill-rule: nonzero; opacity: 1;"  transform=" translate(-40, -40)" d="M 80 52.5 L 52.5 52.5 L 52.5 80 L 27.5 80 L 27.5 52.5 L 0 52.5 L 0 27.5 L 27.5 27.5 L 27.5 0 L 52.5 0 L 52.5 27.5 L 80 27.5 L 80 52.5 z" stroke-linecap="round" />
</g>
</svg>